<?xml version="1.0" standalone="no"?><!DOCTYPE svg PUBLIC "-//W3C//DTD SVG 1.1//EN" "http://www.w3.org/Graphics/SVG/1.1/DTD/svg11.dtd"><svg t="1521767566172" class="icon" style="" viewBox="0 0 1024 1024" version="1.1" xmlns="http://www.w3.org/2000/svg" p-id="1049" xmlns:xlink="http://www.w3.org/1999/xlink" width="128" height="128"><defs><style type="text/css"></style></defs><path d="M372.765921 980.981987a74.507463 43.018013 0 1 0 149.014926 0 74.507463 43.018013 0 1 0-149.014926 0Z" fill="#C7C7D3" p-id="1050"></path><path d="M355.506014 957.34843a91.76737 52.981987 0 1 0 183.53474 0 91.76737 52.981987 0 1 0-183.53474 0Z" fill="#DFDFEA" p-id="1051"></path><path d="M549.399992 748.137931c-56.407617-32.938755-147.862069-32.938755-204.220278 0-48.716418 28.393206-55.304169 72.004117-19.862069 104.547607l30.600103 85.393721c-2.305713 15.217705 6.587751 30.913021 26.499228 42.556871 35.837365 20.88317 93.87545 20.88317 129.795162 0 21.41019-12.467319 30.007205-29.644879 25.856923-45.75193l28.640247-79.892949c38.274833-32.757591 32.576428-77.784869-17.309316-106.85332z" fill="#E8E8ED" p-id="1052"></path><path d="M302.836945 828.409676a144.436438 83.384457 0 1 0 288.872877 0 144.436438 83.384457 0 1 0-288.872877 0Z" fill="#DFDFEA" p-id="1053"></path><path d="M450.419035 934.538343c-37.879568 0-75.759135-8.317036-104.498199-24.951107a137.651055 137.651055 0 0 1-8.926402-5.616057 4.726711 4.726711 0 0 1 5.369017-7.790016 146.906845 146.906845 0 0 0 8.234688 5.220793c55.00772 31.752959 144.518785 31.752959 199.526506 0a4.726711 4.726711 0 1 1 4.74318 8.234688c-28.772002 16.518785-66.618631 24.901698-104.44879 24.901699z" fill="#DFDFEA" p-id="1054"></path><path d="M449.628505 954.647452c-35.936181 0-71.855893-7.888832-99.211529-23.682964-2.38806-1.383428-4.726711-2.832733-6.933608-4.298508a4.726711 4.726711 0 0 1 5.237262-7.872362c2.042203 1.366958 4.199691 2.700978 6.423058 3.985589 52.10911 30.073083 136.876994 30.073083 188.969634 0a4.726711 4.726711 0 1 1 4.726711 8.234689c-27.355636 15.744725-63.275347 23.633556-99.211528 23.633556z" fill="#DFDFEA" p-id="1055"></path><path d="M449.348525 974.54246c-32.938755 0-65.877509-7.230057-90.894493-21.69017-2.173958-1.268142-4.314977-2.585692-6.357179-3.95265a4.726711 4.726711 0 0 1 5.237262-7.872363c1.877509 1.251673 3.837365 2.470407 5.846629 3.623263 47.514153 27.437983 124.804941 27.437983 172.319094 0a4.726711 4.726711 0 0 1 4.726711 8.234689c-25.049923 14.443644-57.972208 21.657231-90.878024 21.657231z" fill="#DFDFEA" p-id="1056"></path><path d="M778.406683 393.898096c0-189.315492-153.478127-342.810087-342.810088-342.810088A342.826557 342.826557 0 0 0 235.345437 672.164694a162.058672 162.058672 0 0 1 67.903243 131.310345v0.082346c-2.865672 23.27123 11.067422 47.118888 41.881626 64.905816 56.407617 32.559959 147.862069 32.559959 204.220278 0 27.734431-16.008235 41.799279-36.924344 42.260422-57.90633v-2.585692a211.450335 211.450335 0 0 1 71.641791-157.842512 341.95368 341.95368 0 0 0 115.153886-256.230571z" fill="#FFCF48" p-id="1057"></path><path d="M778.406683 393.898096c0-189.397838-153.478127-342.810087-342.810088-342.810088a344.209985 344.209985 0 0 0-109.521358 17.753989 343.172414 343.172414 0 0 0 5.401955 552.893464c42.342769 30.517756 67.886773 194.157488 67.886773 246.348945a142.707154 142.707154 0 0 0 7.42769 21.41019c48.963459 8.234689 103.987648 1.185795 142.608337-21.097272 27.734431-16.008235 41.799279-36.924344 42.260422-57.906331v-2.585692a211.450335 211.450335 0 0 1 71.641791-157.842511 341.95368 341.95368 0 0 0 115.104478-256.164694z" fill="#FFE448" p-id="1058"></path><path d="M383.520425 739.689141a161.284611 161.284611 0 0 0-34.091611 14.460113c-54.431292 31.423572-54.431292 82.346886 0 113.803397 16.864642 9.733402 36.973752 16.469377 58.318064 20.142048a139.857952 139.857952 0 0 1-6.801852-20.010293c0-25.609882-6.159547-78.031909-17.424601-128.395265z" fill="#EFBE43" p-id="1059"></path><path d="M546.534321 867.952651c54.431292-31.423572 54.431292-82.346886 0-113.803397-44.137931-25.478127-110.493052-30.303654-163.046835-14.460113 11.265054 50.363356 17.424601 102.785383 17.424601 128.461142a139.857952 139.857952 0 0 0 6.801853 20.010293c47.580031 8.18528 101.253731 1.482244 138.820381-20.207925z" fill="#EACD3B" p-id="1060"></path><path d="M438.001125 98.272774a292.23263 292.23263 0 0 0-107.050953 20.158518 4.084406 4.084406 0 0 0 1.729285 7.872362q11.166238-0.691714 22.513639-0.708183c195.079774 0 353.202265 158.106022 353.202264 353.202264q0 6.950077-0.26351 13.817808a36.380854 36.380854 0 0 0 0.889347 9.535769 292.183222 292.183222 0 0 0 21.756047-114.49511C728.982082 227.853834 597.803492 98.305713 438.001125 98.272774z" fill="#FCF295" p-id="1061"></path><path d="M716.072256 123.290353l-20.039484-11.700747 65.155473-111.589631 20.039484 11.700747-65.155473 111.589631Z" fill="#FFE448" p-id="1062"></path><path d="M775.464089 187.973918l-14.333098-20.584272 106.043464-73.839453 14.333098 20.584271-106.043464 73.839454Z" fill="#FFE448" p-id="1063"></path><path d="M802.671685 271.915089l-5.176667-20.80889 125.396736-31.195188 5.176667 20.80889-125.396736 31.195188Z" fill="#FFE448" p-id="1064"></path></svg>