<?xml version="1.0" encoding="UTF-8"?>
<svg width="140px" height="120px" viewBox="0 0 140 120" version="1.1" xmlns="http://www.w3.org/2000/svg" xmlns:xlink="http://www.w3.org/1999/xlink">
    <title>扫描成功</title>
    <g id="页面-1" stroke="none" stroke-width="1" fill="none" fill-rule="evenodd">
        <g id="pc-扫描成功" transform="translate(-545.000000, -291.000000)">
            <g id="扫描成功" transform="translate(545.000000, 291.000000)">
                <rect id="矩形" x="0" y="0" width="140" height="120"></rect>
                <g id="电脑" transform="translate(11.000000, 23.000000)">
                    <path d="M65,44 C65,48.418278 68.581722,52 73,52 C77.418278,52 81,48.418278 81,44 C81,39.581722 77.418278,36 73,36 C68.581722,36 65,39.581722 65,44 L65,44 Z" id="路径" fill="#FFFFFF" fill-rule="nonzero"></path>
                    <path d="M31,44 C31,48.418278 34.581722,52 39,52 C43.418278,52 47,48.418278 47,44 C47,39.581722 43.418278,36 39,36 C34.581722,36 31,39.581722 31,44 Z" id="路径" fill="#FFFFFF" fill-rule="nonzero"></path>
                    <rect id="矩形" fill="#D8D8D8" x="48" y="64" width="15" height="16"></rect>
                    <polygon id="路径" fill="#181818" fill-rule="nonzero" points="32 78 32 84 78 84 78 78"></polygon>
                    <path d="M108.409639,75 L1.59036145,75 C0.715662651,75 0,74.3150868 0,73.4779706 L0,57.5220294 C0,56.6849132 0.715662651,56 1.59036145,56 L108.409639,56 C109.284337,56 110,56.6849132 110,57.5220294 L110,73.4779706 C110,74.3150868 109.284337,75 108.409639,75 Z" id="路径" fill="#DADADA" fill-rule="nonzero"></path>
                    <path d="M110,62 L0,62 L0,2.2652178 C0,1.01867783 1.00722892,0 2.23975904,0 L107.760241,0 C108.992771,0 110,1.01867783 110,2.2652178 L110,62 Z" id="路径" fill="#F4F4F4" fill-rule="nonzero"></path>
                    <path d="M53,69.5 C53,70.8807119 54.1192881,72 55.5,72 C56.8807119,72 58,70.8807119 58,69.5 C58,68.6068361 57.5235028,67.7815185 56.75,67.3349365 C55.9764973,66.8883545 55.0235027,66.8883545 54.25,67.3349365 C53.4764972,67.7815185 53,68.6068361 53,69.5 L53,69.5 Z" id="路径" fill="#FFFFFF" fill-rule="nonzero"></path>
                    <path d="M58.4778325,42.4827586 C59.236884,42.4827586 59.8522167,43.1002969 59.8522167,43.862069 L59.8522167,46.6206897 C59.8522167,47.3824617 59.236884,48 58.4778325,48 C57.7187811,48 57.1034483,47.3824617 57.1034483,46.6206897 L57.1034483,43.862069 C57.1034483,43.1002969 57.7187811,42.4827586 58.4778325,42.4827586 Z M52.6818182,34.3636364 C53.4600376,34.3636364 54.0909091,34.9741572 54.0909091,35.7272727 L54.0909091,46.6363636 C54.0909091,47.3894792 53.4600376,48 52.6818182,48 L41.4090909,48 C40.6308715,48 40,47.3894792 40,46.6363636 L40,35.7272727 C40,34.9741572 40.6308715,34.3636364 41.4090909,34.3636364 L52.6818182,34.3636364 Z M69.5909091,39.8181818 C70.3691285,39.8181818 71,40.4287026 71,41.1818182 L71,46.6363636 C71,47.3894792 70.3691285,48 69.5909091,48 L62.5454545,48 C61.7672351,48 61.1363636,47.3894792 61.1363636,46.6363636 C61.1363636,45.8832481 61.7672351,45.2727273 62.5454545,45.2727273 L68.1818182,45.2727273 L68.1818182,41.1818182 C68.1818182,40.4287026 68.8126897,39.8181818 69.5909091,39.8181818 Z M51.2727273,37.0909091 L42.8181818,37.0909091 L42.8181818,45.2727273 L51.2727273,45.2727273 L51.2727273,37.0909091 Z M65.3497537,39.7241379 C66.1088051,39.7241379 66.7241379,40.3416762 66.7241379,41.1034483 C66.7241379,41.8652203 66.1088051,42.4827586 65.3497537,42.4827586 L62.6009852,42.4827586 C61.8419338,42.4827586 61.226601,41.8652203 61.226601,41.1034483 C61.226601,40.3416762 61.8419338,39.7241379 62.6009852,39.7241379 L65.3497537,39.7241379 Z M68.1818182,34.3636364 C68.9600376,34.3636364 69.5909091,34.9741572 69.5909091,35.7272727 C69.5909091,36.4803883 68.9600376,37.0909091 68.1818182,37.0909091 L58.3181818,37.0909091 C57.5399624,37.0909091 56.9090909,36.4803883 56.9090909,35.7272727 C56.9090909,34.9741572 57.5399624,34.3636364 58.3181818,34.3636364 L68.1818182,34.3636364 Z M52.6818182,18 C53.4600376,18 54.0909091,18.6105208 54.0909091,19.3636364 L54.0909091,30.2727273 C54.0909091,31.0258428 53.4600376,31.6363636 52.6818182,31.6363636 L41.4090909,31.6363636 C40.6308715,31.6363636 40,31.0258428 40,30.2727273 L40,19.3636364 C40,18.6105208 40.6308715,18 41.4090909,18 L52.6818182,18 Z M69.5909091,18 C70.3691285,18 71,18.6105208 71,19.3636364 L71,30.2727273 C71,31.0258428 70.3691285,31.6363636 69.5909091,31.6363636 L58.3181818,31.6363636 C57.5399624,31.6363636 56.9090909,31.0258428 56.9090909,30.2727273 L56.9090909,19.3636364 C56.9090909,18.6105208 57.5399624,18 58.3181818,18 L69.5909091,18 Z M51.2727273,20.7272727 L42.8181818,20.7272727 L42.8181818,28.9090909 L51.2727273,28.9090909 L51.2727273,20.7272727 Z M68.1818182,20.7272727 L59.7272727,20.7272727 L59.7272727,28.9090909 L68.1818182,28.9090909 L68.1818182,20.7272727 Z" id="形状结合" fill="#FFFFFF" fill-rule="nonzero"></path>
                </g>
                <g id="success_l-(1)" transform="translate(83.000000, 55.000000)">
                    <circle id="椭圆形" fill="#FFFFFF" cx="24" cy="24" r="21"></circle>
                    <polygon id="路径" fill="#0ABF5B" fill-rule="nonzero" points="20.516129 27.5783226 15.3073548 22.3695484 12.0232258 25.6536774 17.232 30.8624516 20.516129 34.1465806 23.8002581 30.8624516 35.9767742 18.6859355 32.6926452 15.4018065"></polygon>
                    <path d="M24,0 C10.7458065,0 0,10.7458065 0,24 C0,37.2541935 10.7458065,48 24,48 C37.2541935,48 48,37.2541935 48,24 C48,10.7458065 37.2541935,0 24,0 Z M24,43.3548387 C13.3269677,43.3548387 4.64516129,34.6730323 4.64516129,24 C4.64516129,13.3269677 13.3269677,4.64516129 24,4.64516129 C34.6730323,4.64516129 43.3548387,13.3269677 43.3548387,24 C43.3548387,34.6730323 34.6730323,43.3548387 24,43.3548387 Z" id="形状" fill="#0ABF5B" fill-rule="nonzero"></path>
                </g>
            </g>
        </g>
    </g>
</svg>